<?xml version="1.0" standalone="no"?>
<svg xmlns="http://www.w3.org/2000/svg" width="280" height="280" xmlns:xlink="http://www.w3.org/1999/xlink" viewBox="0 0 280 280"><defs><clipPath id="clip-path-background-color-8"><rect x="0" y="0" width="280" height="280"/></clipPath><clipPath id="clip-path-dot-color-8"><circle cx="85.5" cy="13.5" r="4.5" transform="rotate(0,85.5,13.5)"/><circle cx="94.5" cy="13.5" r="4.5" transform="rotate(0,94.5,13.5)"/><circle cx="130.5" cy="13.5" r="4.5" transform="rotate(0,130.5,13.5)"/><circle cx="157.5" cy="13.5" r="4.5" transform="rotate(0,157.5,13.5)"/><circle cx="166.5" cy="13.5" r="4.5" transform="rotate(0,166.5,13.5)"/><circle cx="175.5" cy="13.5" r="4.5" transform="rotate(0,175.5,13.5)"/><circle cx="94.5" cy="22.5" r="4.5" transform="rotate(0,94.5,22.5)"/><circle cx="121.5" cy="22.5" r="4.5" transform="rotate(0,121.5,22.5)"/><circle cx="157.5" cy="22.5" r="4.5" transform="rotate(0,157.5,22.5)"/><circle cx="175.5" cy="22.5" r="4.5" transform="rotate(0,175.5,22.5)"/><circle cx="103.5" cy="31.5" r="4.5" transform="rotate(0,103.5,31.5)"/><circle cx="139.5" cy="31.5" r="4.5" transform="rotate(0,139.5,31.5)"/><circle cx="148.5" cy="31.5" r="4.5" transform="rotate(0,148.5,31.5)"/><circle cx="175.5" cy="31.5" r="4.5" transform="rotate(0,175.5,31.5)"/><circle cx="184.5" cy="31.5" r="4.5" transform="rotate(0,184.5,31.5)"/><circle cx="85.5" cy="40.5" r="4.5" transform="rotate(0,85.5,40.5)"/><circle cx="94.5" cy="40.5" r="4.5" transform="rotate(0,94.5,40.5)"/><circle cx="103.5" cy="40.5" r="4.5" transform="rotate(0,103.5,40.5)"/><circle cx="148.5" cy="40.5" r="4.5" transform="rotate(0,148.5,40.5)"/><circle cx="175.5" cy="40.5" r="4.5" transform="rotate(0,175.5,40.5)"/><circle cx="94.5" cy="49.5" r="4.5" transform="rotate(0,94.5,49.5)"/><circle cx="121.5" cy="49.5" r="4.5" transform="rotate(0,121.5,49.5)"/><circle cx="130.5" cy="49.5" r="4.5" transform="rotate(0,130.5,49.5)"/><circle cx="139.5" cy="49.5" r="4.5" transform="rotate(0,139.5,49.5)"/><circle cx="157.5" cy="49.5" r="4.5" transform="rotate(0,157.5,49.5)"/><circle cx="175.5" cy="49.5" r="4.5" transform="rotate(0,175.5,49.5)"/><circle cx="184.5" cy="49.5" r="4.5" transform="rotate(0,184.5,49.5)"/><circle cx="193.5" cy="49.5" r="4.5" transform="rotate(0,193.5,49.5)"/><circle cx="121.5" cy="58.5" r="4.5" transform="rotate(0,121.5,58.5)"/><circle cx="148.5" cy="58.5" r="4.5" transform="rotate(0,148.5,58.5)"/><circle cx="157.5" cy="58.5" r="4.5" transform="rotate(0,157.5,58.5)"/><circle cx="166.5" cy="58.5" r="4.5" transform="rotate(0,166.5,58.5)"/><circle cx="184.5" cy="58.5" r="4.5" transform="rotate(0,184.5,58.5)"/><circle cx="193.5" cy="58.5" r="4.5" transform="rotate(0,193.5,58.5)"/><circle cx="85.5" cy="67.5" r="4.5" transform="rotate(0,85.5,67.5)"/><circle cx="103.5" cy="67.5" r="4.5" transform="rotate(0,103.5,67.5)"/><circle cx="121.5" cy="67.5" r="4.5" transform="rotate(0,121.5,67.5)"/><circle cx="139.5" cy="67.5" r="4.5" transform="rotate(0,139.5,67.5)"/><circle cx="157.5" cy="67.5" r="4.5" transform="rotate(0,157.5,67.5)"/><circle cx="175.5" cy="67.5" r="4.5" transform="rotate(0,175.5,67.5)"/><circle cx="193.5" cy="67.5" r="4.5" transform="rotate(0,193.5,67.5)"/><circle cx="94.5" cy="76.5" r="4.5" transform="rotate(0,94.5,76.5)"/><circle cx="103.5" cy="76.5" r="4.5" transform="rotate(0,103.5,76.5)"/><circle cx="148.5" cy="76.5" r="4.5" transform="rotate(0,148.5,76.5)"/><circle cx="166.5" cy="76.5" r="4.5" transform="rotate(0,166.5,76.5)"/><circle cx="175.5" cy="76.5" r="4.5" transform="rotate(0,175.5,76.5)"/><circle cx="184.5" cy="76.5" r="4.5" transform="rotate(0,184.5,76.5)"/><circle cx="31.5" cy="85.5" r="4.5" transform="rotate(0,31.5,85.5)"/><circle cx="49.5" cy="85.5" r="4.5" transform="rotate(0,49.5,85.5)"/><circle cx="58.5" cy="85.5" r="4.5" transform="rotate(0,58.5,85.5)"/><circle cx="67.5" cy="85.5" r="4.5" transform="rotate(0,67.5,85.5)"/><circle cx="85.5" cy="85.5" r="4.5" transform="rotate(0,85.5,85.5)"/><circle cx="103.5" cy="85.5" r="4.5" transform="rotate(0,103.5,85.5)"/><circle cx="112.5" cy="85.5" r="4.5" transform="rotate(0,112.5,85.5)"/><circle cx="130.5" cy="85.5" r="4.5" transform="rotate(0,130.5,85.5)"/><circle cx="148.5" cy="85.5" r="4.5" transform="rotate(0,148.5,85.5)"/><circle cx="157.5" cy="85.5" r="4.5" transform="rotate(0,157.5,85.5)"/><circle cx="175.5" cy="85.5" r="4.5" transform="rotate(0,175.5,85.5)"/><circle cx="193.5" cy="85.5" r="4.5" transform="rotate(0,193.5,85.5)"/><circle cx="202.5" cy="85.5" r="4.5" transform="rotate(0,202.5,85.5)"/><circle cx="238.5" cy="85.5" r="4.5" transform="rotate(0,238.5,85.5)"/><circle cx="265.5" cy="85.5" r="4.5" transform="rotate(0,265.5,85.5)"/><circle cx="31.5" cy="94.5" r="4.5" transform="rotate(0,31.5,94.5)"/><circle cx="40.5" cy="94.5" r="4.5" transform="rotate(0,40.5,94.5)"/><circle cx="49.5" cy="94.5" r="4.5" transform="rotate(0,49.5,94.5)"/><circle cx="94.5" cy="94.5" r="4.5" transform="rotate(0,94.5,94.5)"/><circle cx="103.5" cy="94.5" r="4.5" transform="rotate(0,103.5,94.5)"/><circle cx="121.5" cy="94.5" r="4.5" transform="rotate(0,121.5,94.5)"/><circle cx="148.5" cy="94.5" r="4.5" transform="rotate(0,148.5,94.5)"/><circle cx="157.5" cy="94.5" r="4.5" transform="rotate(0,157.5,94.5)"/><circle cx="175.5" cy="94.5" r="4.5" transform="rotate(0,175.5,94.5)"/><circle cx="184.5" cy="94.5" r="4.5" transform="rotate(0,184.5,94.5)"/><circle cx="211.5" cy="94.5" r="4.5" transform="rotate(0,211.5,94.5)"/><circle cx="220.5" cy="94.5" r="4.5" transform="rotate(0,220.5,94.5)"/><circle cx="247.5" cy="94.5" r="4.5" transform="rotate(0,247.5,94.5)"/><circle cx="265.5" cy="94.5" r="4.5" transform="rotate(0,265.5,94.5)"/><circle cx="13.5" cy="103.5" r="4.5" transform="rotate(0,13.5,103.5)"/><circle cx="22.5" cy="103.5" r="4.5" transform="rotate(0,22.5,103.5)"/><circle cx="31.5" cy="103.5" r="4.5" transform="rotate(0,31.5,103.5)"/><circle cx="58.5" cy="103.5" r="4.5" transform="rotate(0,58.5,103.5)"/><circle cx="67.5" cy="103.5" r="4.5" transform="rotate(0,67.5,103.5)"/><circle cx="94.5" cy="103.5" r="4.5" transform="rotate(0,94.5,103.5)"/><circle cx="103.5" cy="103.5" r="4.5" transform="rotate(0,103.5,103.5)"/><circle cx="112.5" cy="103.5" r="4.5" transform="rotate(0,112.5,103.5)"/><circle cx="130.5" cy="103.5" r="4.5" transform="rotate(0,130.5,103.5)"/><circle cx="157.5" cy="103.5" r="4.5" transform="rotate(0,157.5,103.5)"/><circle cx="166.5" cy="103.5" r="4.5" transform="rotate(0,166.5,103.5)"/><circle cx="193.5" cy="103.5" r="4.5" transform="rotate(0,193.5,103.5)"/><circle cx="220.5" cy="103.5" r="4.5" transform="rotate(0,220.5,103.5)"/><circle cx="229.5" cy="103.5" r="4.5" transform="rotate(0,229.5,103.5)"/><circle cx="256.5" cy="103.5" r="4.5" transform="rotate(0,256.5,103.5)"/><circle cx="265.5" cy="103.5" r="4.5" transform="rotate(0,265.5,103.5)"/><circle cx="40.5" cy="112.5" r="4.5" transform="rotate(0,40.5,112.5)"/><circle cx="58.5" cy="112.5" r="4.5" transform="rotate(0,58.5,112.5)"/><circle cx="85.5" cy="112.5" r="4.5" transform="rotate(0,85.5,112.5)"/><circle cx="121.5" cy="112.5" r="4.5" transform="rotate(0,121.5,112.5)"/><circle cx="157.5" cy="112.5" r="4.5" transform="rotate(0,157.5,112.5)"/><circle cx="166.5" cy="112.5" r="4.5" transform="rotate(0,166.5,112.5)"/><circle cx="175.5" cy="112.5" r="4.5" transform="rotate(0,175.5,112.5)"/><circle cx="202.5" cy="112.5" r="4.5" transform="rotate(0,202.5,112.5)"/><circle cx="211.5" cy="112.5" r="4.5" transform="rotate(0,211.5,112.5)"/><circle cx="220.5" cy="112.5" r="4.5" transform="rotate(0,220.5,112.5)"/><circle cx="229.5" cy="112.5" r="4.5" transform="rotate(0,229.5,112.5)"/><circle cx="256.5" cy="112.5" r="4.5" transform="rotate(0,256.5,112.5)"/><circle cx="13.5" cy="121.5" r="4.5" transform="rotate(0,13.5,121.5)"/><circle cx="22.5" cy="121.5" r="4.5" transform="rotate(0,22.5,121.5)"/><circle cx="31.5" cy="121.5" r="4.5" transform="rotate(0,31.5,121.5)"/><circle cx="40.5" cy="121.5" r="4.5" transform="rotate(0,40.5,121.5)"/><circle cx="67.5" cy="121.5" r="4.5" transform="rotate(0,67.5,121.5)"/><circle cx="85.5" cy="121.5" r="4.5" transform="rotate(0,85.5,121.5)"/><circle cx="94.5" cy="121.5" r="4.5" transform="rotate(0,94.5,121.5)"/><circle cx="103.5" cy="121.5" r="4.5" transform="rotate(0,103.5,121.5)"/><circle cx="112.5" cy="121.5" r="4.5" transform="rotate(0,112.5,121.5)"/><circle cx="130.5" cy="121.5" r="4.5" transform="rotate(0,130.5,121.5)"/><circle cx="139.5" cy="121.5" r="4.5" transform="rotate(0,139.5,121.5)"/><circle cx="148.5" cy="121.5" r="4.5" transform="rotate(0,148.5,121.5)"/><circle cx="157.5" cy="121.5" r="4.5" transform="rotate(0,157.5,121.5)"/><circle cx="193.5" cy="121.5" r="4.5" transform="rotate(0,193.5,121.5)"/><circle cx="211.5" cy="121.5" r="4.5" transform="rotate(0,211.5,121.5)"/><circle cx="220.5" cy="121.5" r="4.5" transform="rotate(0,220.5,121.5)"/><circle cx="31.5" cy="130.5" r="4.5" transform="rotate(0,31.5,130.5)"/><circle cx="49.5" cy="130.5" r="4.5" transform="rotate(0,49.5,130.5)"/><circle cx="85.5" cy="130.5" r="4.5" transform="rotate(0,85.5,130.5)"/><circle cx="103.5" cy="130.5" r="4.5" transform="rotate(0,103.5,130.5)"/><circle cx="112.5" cy="130.5" r="4.5" transform="rotate(0,112.5,130.5)"/><circle cx="148.5" cy="130.5" r="4.5" transform="rotate(0,148.5,130.5)"/><circle cx="166.5" cy="130.5" r="4.5" transform="rotate(0,166.5,130.5)"/><circle cx="175.5" cy="130.5" r="4.5" transform="rotate(0,175.5,130.5)"/><circle cx="193.5" cy="130.5" r="4.5" transform="rotate(0,193.5,130.5)"/><circle cx="202.5" cy="130.5" r="4.5" transform="rotate(0,202.5,130.5)"/><circle cx="211.5" cy="130.5" r="4.5" transform="rotate(0,211.5,130.5)"/><circle cx="220.5" cy="130.5" r="4.5" transform="rotate(0,220.5,130.5)"/><circle cx="256.5" cy="130.5" r="4.5" transform="rotate(0,256.5,130.5)"/><circle cx="265.5" cy="130.5" r="4.5" transform="rotate(0,265.5,130.5)"/><circle cx="13.5" cy="139.5" r="4.5" transform="rotate(0,13.5,139.5)"/><circle cx="31.5" cy="139.5" r="4.5" transform="rotate(0,31.5,139.5)"/><circle cx="67.5" cy="139.5" r="4.5" transform="rotate(0,67.5,139.5)"/><circle cx="76.5" cy="139.5" r="4.5" transform="rotate(0,76.5,139.5)"/><circle cx="103.5" cy="139.5" r="4.5" transform="rotate(0,103.5,139.5)"/><circle cx="121.5" cy="139.5" r="4.5" transform="rotate(0,121.5,139.5)"/><circle cx="157.5" cy="139.5" r="4.5" transform="rotate(0,157.5,139.5)"/><circle cx="202.5" cy="139.5" r="4.5" transform="rotate(0,202.5,139.5)"/><circle cx="211.5" cy="139.5" r="4.5" transform="rotate(0,211.5,139.5)"/><circle cx="220.5" cy="139.5" r="4.5" transform="rotate(0,220.5,139.5)"/><circle cx="247.5" cy="139.5" r="4.5" transform="rotate(0,247.5,139.5)"/><circle cx="256.5" cy="139.5" r="4.5" transform="rotate(0,256.5,139.5)"/><circle cx="265.5" cy="139.5" r="4.5" transform="rotate(0,265.5,139.5)"/><circle cx="13.5" cy="148.5" r="4.5" transform="rotate(0,13.5,148.5)"/><circle cx="22.5" cy="148.5" r="4.5" transform="rotate(0,22.5,148.5)"/><circle cx="31.5" cy="148.5" r="4.5" transform="rotate(0,31.5,148.5)"/><circle cx="49.5" cy="148.5" r="4.5" transform="rotate(0,49.5,148.5)"/><circle cx="85.5" cy="148.5" r="4.5" transform="rotate(0,85.5,148.5)"/><circle cx="103.5" cy="148.5" r="4.5" transform="rotate(0,103.5,148.5)"/><circle cx="112.5" cy="148.5" r="4.5" transform="rotate(0,112.5,148.5)"/><circle cx="121.5" cy="148.5" r="4.5" transform="rotate(0,121.5,148.5)"/><circle cx="166.5" cy="148.5" r="4.5" transform="rotate(0,166.5,148.5)"/><circle cx="175.5" cy="148.5" r="4.5" transform="rotate(0,175.5,148.5)"/><circle cx="193.5" cy="148.5" r="4.5" transform="rotate(0,193.5,148.5)"/><circle cx="202.5" cy="148.5" r="4.5" transform="rotate(0,202.5,148.5)"/><circle cx="211.5" cy="148.5" r="4.5" transform="rotate(0,211.5,148.5)"/><circle cx="220.5" cy="148.5" r="4.5" transform="rotate(0,220.5,148.5)"/><circle cx="40.5" cy="157.5" r="4.5" transform="rotate(0,40.5,157.5)"/><circle cx="58.5" cy="157.5" r="4.5" transform="rotate(0,58.5,157.5)"/><circle cx="67.5" cy="157.5" r="4.5" transform="rotate(0,67.5,157.5)"/><circle cx="85.5" cy="157.5" r="4.5" transform="rotate(0,85.5,157.5)"/><circle cx="94.5" cy="157.5" r="4.5" transform="rotate(0,94.5,157.5)"/><circle cx="112.5" cy="157.5" r="4.5" transform="rotate(0,112.5,157.5)"/><circle cx="130.5" cy="157.5" r="4.5" transform="rotate(0,130.5,157.5)"/><circle cx="139.5" cy="157.5" r="4.5" transform="rotate(0,139.5,157.5)"/><circle cx="148.5" cy="157.5" r="4.5" transform="rotate(0,148.5,157.5)"/><circle cx="166.5" cy="157.5" r="4.5" transform="rotate(0,166.5,157.5)"/><circle cx="175.5" cy="157.5" r="4.5" transform="rotate(0,175.5,157.5)"/><circle cx="202.5" cy="157.5" r="4.5" transform="rotate(0,202.5,157.5)"/><circle cx="211.5" cy="157.5" r="4.5" transform="rotate(0,211.5,157.5)"/><circle cx="238.5" cy="157.5" r="4.5" transform="rotate(0,238.5,157.5)"/><circle cx="22.5" cy="166.5" r="4.5" transform="rotate(0,22.5,166.5)"/><circle cx="31.5" cy="166.5" r="4.5" transform="rotate(0,31.5,166.5)"/><circle cx="40.5" cy="166.5" r="4.5" transform="rotate(0,40.5,166.5)"/><circle cx="85.5" cy="166.5" r="4.5" transform="rotate(0,85.5,166.5)"/><circle cx="94.5" cy="166.5" r="4.5" transform="rotate(0,94.5,166.5)"/><circle cx="103.5" cy="166.5" r="4.5" transform="rotate(0,103.5,166.5)"/><circle cx="112.5" cy="166.5" r="4.5" transform="rotate(0,112.5,166.5)"/><circle cx="121.5" cy="166.5" r="4.5" transform="rotate(0,121.5,166.5)"/><circle cx="130.5" cy="166.5" r="4.5" transform="rotate(0,130.5,166.5)"/><circle cx="148.5" cy="166.5" r="4.5" transform="rotate(0,148.5,166.5)"/><circle cx="166.5" cy="166.5" r="4.5" transform="rotate(0,166.5,166.5)"/><circle cx="211.5" cy="166.5" r="4.5" transform="rotate(0,211.5,166.5)"/><circle cx="238.5" cy="166.5" r="4.5" transform="rotate(0,238.5,166.5)"/><circle cx="247.5" cy="166.5" r="4.5" transform="rotate(0,247.5,166.5)"/><circle cx="256.5" cy="166.5" r="4.5" transform="rotate(0,256.5,166.5)"/><circle cx="265.5" cy="166.5" r="4.5" transform="rotate(0,265.5,166.5)"/><circle cx="13.5" cy="175.5" r="4.5" transform="rotate(0,13.5,175.5)"/><circle cx="31.5" cy="175.5" r="4.5" transform="rotate(0,31.5,175.5)"/><circle cx="40.5" cy="175.5" r="4.5" transform="rotate(0,40.5,175.5)"/><circle cx="58.5" cy="175.5" r="4.5" transform="rotate(0,58.5,175.5)"/><circle cx="67.5" cy="175.5" r="4.5" transform="rotate(0,67.5,175.5)"/><circle cx="76.5" cy="175.5" r="4.5" transform="rotate(0,76.5,175.5)"/><circle cx="94.5" cy="175.5" r="4.5" transform="rotate(0,94.5,175.5)"/><circle cx="157.5" cy="175.5" r="4.5" transform="rotate(0,157.5,175.5)"/><circle cx="175.5" cy="175.5" r="4.5" transform="rotate(0,175.5,175.5)"/><circle cx="202.5" cy="175.5" r="4.5" transform="rotate(0,202.5,175.5)"/><circle cx="238.5" cy="175.5" r="4.5" transform="rotate(0,238.5,175.5)"/><circle cx="256.5" cy="175.5" r="4.5" transform="rotate(0,256.5,175.5)"/><circle cx="265.5" cy="175.5" r="4.5" transform="rotate(0,265.5,175.5)"/><circle cx="22.5" cy="184.5" r="4.5" transform="rotate(0,22.5,184.5)"/><circle cx="31.5" cy="184.5" r="4.5" transform="rotate(0,31.5,184.5)"/><circle cx="40.5" cy="184.5" r="4.5" transform="rotate(0,40.5,184.5)"/><circle cx="49.5" cy="184.5" r="4.5" transform="rotate(0,49.5,184.5)"/><circle cx="76.5" cy="184.5" r="4.5" transform="rotate(0,76.5,184.5)"/><circle cx="130.5" cy="184.5" r="4.5" transform="rotate(0,130.5,184.5)"/><circle cx="148.5" cy="184.5" r="4.5" transform="rotate(0,148.5,184.5)"/><circle cx="166.5" cy="184.5" r="4.5" transform="rotate(0,166.5,184.5)"/><circle cx="184.5" cy="184.5" r="4.5" transform="rotate(0,184.5,184.5)"/><circle cx="193.5" cy="184.5" r="4.5" transform="rotate(0,193.5,184.5)"/><circle cx="211.5" cy="184.5" r="4.5" transform="rotate(0,211.5,184.5)"/><circle cx="220.5" cy="184.5" r="4.5" transform="rotate(0,220.5,184.5)"/><circle cx="238.5" cy="184.5" r="4.5" transform="rotate(0,238.5,184.5)"/><circle cx="256.5" cy="184.5" r="4.5" transform="rotate(0,256.5,184.5)"/><circle cx="265.5" cy="184.5" r="4.5" transform="rotate(0,265.5,184.5)"/><circle cx="13.5" cy="193.5" r="4.5" transform="rotate(0,13.5,193.5)"/><circle cx="31.5" cy="193.5" r="4.5" transform="rotate(0,31.5,193.5)"/><circle cx="49.5" cy="193.5" r="4.5" transform="rotate(0,49.5,193.5)"/><circle cx="58.5" cy="193.5" r="4.5" transform="rotate(0,58.5,193.5)"/><circle cx="67.5" cy="193.5" r="4.5" transform="rotate(0,67.5,193.5)"/><circle cx="76.5" cy="193.5" r="4.5" transform="rotate(0,76.5,193.5)"/><circle cx="85.5" cy="193.5" r="4.5" transform="rotate(0,85.5,193.5)"/><circle cx="148.5" cy="193.5" r="4.5" transform="rotate(0,148.5,193.5)"/><circle cx="157.5" cy="193.5" r="4.5" transform="rotate(0,157.5,193.5)"/><circle cx="166.5" cy="193.5" r="4.5" transform="rotate(0,166.5,193.5)"/><circle cx="193.5" cy="193.5" r="4.5" transform="rotate(0,193.5,193.5)"/><circle cx="202.5" cy="193.5" r="4.5" transform="rotate(0,202.5,193.5)"/><circle cx="211.5" cy="193.5" r="4.5" transform="rotate(0,211.5,193.5)"/><circle cx="220.5" cy="193.5" r="4.5" transform="rotate(0,220.5,193.5)"/><circle cx="229.5" cy="193.5" r="4.5" transform="rotate(0,229.5,193.5)"/><circle cx="256.5" cy="193.5" r="4.5" transform="rotate(0,256.5,193.5)"/><circle cx="265.5" cy="193.5" r="4.5" transform="rotate(0,265.5,193.5)"/><circle cx="85.5" cy="202.5" r="4.5" transform="rotate(0,85.5,202.5)"/><circle cx="112.5" cy="202.5" r="4.5" transform="rotate(0,112.5,202.5)"/><circle cx="121.5" cy="202.5" r="4.5" transform="rotate(0,121.5,202.5)"/><circle cx="130.5" cy="202.5" r="4.5" transform="rotate(0,130.5,202.5)"/><circle cx="139.5" cy="202.5" r="4.5" transform="rotate(0,139.5,202.5)"/><circle cx="157.5" cy="202.5" r="4.5" transform="rotate(0,157.5,202.5)"/><circle cx="166.5" cy="202.5" r="4.5" transform="rotate(0,166.5,202.5)"/><circle cx="175.5" cy="202.5" r="4.5" transform="rotate(0,175.5,202.5)"/><circle cx="193.5" cy="202.5" r="4.5" transform="rotate(0,193.5,202.5)"/><circle cx="229.5" cy="202.5" r="4.5" transform="rotate(0,229.5,202.5)"/><circle cx="256.5" cy="202.5" r="4.5" transform="rotate(0,256.5,202.5)"/><circle cx="265.5" cy="202.5" r="4.5" transform="rotate(0,265.5,202.5)"/><circle cx="94.5" cy="211.5" r="4.5" transform="rotate(0,94.5,211.5)"/><circle cx="103.5" cy="211.5" r="4.5" transform="rotate(0,103.5,211.5)"/><circle cx="112.5" cy="211.5" r="4.5" transform="rotate(0,112.5,211.5)"/><circle cx="121.5" cy="211.5" r="4.5" transform="rotate(0,121.5,211.5)"/><circle cx="130.5" cy="211.5" r="4.5" transform="rotate(0,130.5,211.5)"/><circle cx="139.5" cy="211.5" r="4.5" transform="rotate(0,139.5,211.5)"/><circle cx="166.5" cy="211.5" r="4.5" transform="rotate(0,166.5,211.5)"/><circle cx="184.5" cy="211.5" r="4.5" transform="rotate(0,184.5,211.5)"/><circle cx="193.5" cy="211.5" r="4.5" transform="rotate(0,193.5,211.5)"/><circle cx="211.5" cy="211.5" r="4.5" transform="rotate(0,211.5,211.5)"/><circle cx="229.5" cy="211.5" r="4.5" transform="rotate(0,229.5,211.5)"/><circle cx="247.5" cy="211.5" r="4.5" transform="rotate(0,247.5,211.5)"/><circle cx="256.5" cy="211.5" r="4.5" transform="rotate(0,256.5,211.5)"/><circle cx="265.5" cy="211.5" r="4.5" transform="rotate(0,265.5,211.5)"/><circle cx="85.5" cy="220.5" r="4.5" transform="rotate(0,85.5,220.5)"/><circle cx="94.5" cy="220.5" r="4.5" transform="rotate(0,94.5,220.5)"/><circle cx="130.5" cy="220.5" r="4.5" transform="rotate(0,130.5,220.5)"/><circle cx="139.5" cy="220.5" r="4.5" transform="rotate(0,139.5,220.5)"/><circle cx="157.5" cy="220.5" r="4.5" transform="rotate(0,157.5,220.5)"/><circle cx="193.5" cy="220.5" r="4.5" transform="rotate(0,193.5,220.5)"/><circle cx="229.5" cy="220.5" r="4.5" transform="rotate(0,229.5,220.5)"/><circle cx="256.5" cy="220.5" r="4.5" transform="rotate(0,256.5,220.5)"/><circle cx="85.5" cy="229.5" r="4.5" transform="rotate(0,85.5,229.5)"/><circle cx="94.5" cy="229.5" r="4.5" transform="rotate(0,94.5,229.5)"/><circle cx="103.5" cy="229.5" r="4.5" transform="rotate(0,103.5,229.5)"/><circle cx="112.5" cy="229.5" r="4.5" transform="rotate(0,112.5,229.5)"/><circle cx="121.5" cy="229.5" r="4.5" transform="rotate(0,121.5,229.5)"/><circle cx="130.5" cy="229.5" r="4.5" transform="rotate(0,130.5,229.5)"/><circle cx="139.5" cy="229.5" r="4.5" transform="rotate(0,139.5,229.5)"/><circle cx="157.5" cy="229.5" r="4.5" transform="rotate(0,157.5,229.5)"/><circle cx="193.5" cy="229.5" r="4.5" transform="rotate(0,193.5,229.5)"/><circle cx="202.5" cy="229.5" r="4.5" transform="rotate(0,202.5,229.5)"/><circle cx="211.5" cy="229.5" r="4.5" transform="rotate(0,211.5,229.5)"/><circle cx="220.5" cy="229.5" r="4.5" transform="rotate(0,220.5,229.5)"/><circle cx="229.5" cy="229.5" r="4.5" transform="rotate(0,229.5,229.5)"/><circle cx="238.5" cy="229.5" r="4.5" transform="rotate(0,238.5,229.5)"/><circle cx="256.5" cy="229.5" r="4.5" transform="rotate(0,256.5,229.5)"/><circle cx="112.5" cy="238.5" r="4.5" transform="rotate(0,112.5,238.5)"/><circle cx="130.5" cy="238.5" r="4.5" transform="rotate(0,130.5,238.5)"/><circle cx="139.5" cy="238.5" r="4.5" transform="rotate(0,139.5,238.5)"/><circle cx="157.5" cy="238.5" r="4.5" transform="rotate(0,157.5,238.5)"/><circle cx="175.5" cy="238.5" r="4.5" transform="rotate(0,175.5,238.5)"/><circle cx="193.5" cy="238.5" r="4.5" transform="rotate(0,193.5,238.5)"/><circle cx="202.5" cy="238.5" r="4.5" transform="rotate(0,202.5,238.5)"/><circle cx="229.5" cy="238.5" r="4.5" transform="rotate(0,229.5,238.5)"/><circle cx="247.5" cy="238.5" r="4.5" transform="rotate(0,247.5,238.5)"/><circle cx="85.5" cy="247.5" r="4.5" transform="rotate(0,85.5,247.5)"/><circle cx="94.5" cy="247.5" r="4.5" transform="rotate(0,94.5,247.5)"/><circle cx="112.5" cy="247.5" r="4.5" transform="rotate(0,112.5,247.5)"/><circle cx="121.5" cy="247.5" r="4.5" transform="rotate(0,121.5,247.5)"/><circle cx="139.5" cy="247.5" r="4.5" transform="rotate(0,139.5,247.5)"/><circle cx="157.5" cy="247.5" r="4.5" transform="rotate(0,157.5,247.5)"/><circle cx="166.5" cy="247.5" r="4.5" transform="rotate(0,166.5,247.5)"/><circle cx="175.5" cy="247.5" r="4.5" transform="rotate(0,175.5,247.5)"/><circle cx="184.5" cy="247.5" r="4.5" transform="rotate(0,184.5,247.5)"/><circle cx="220.5" cy="247.5" r="4.5" transform="rotate(0,220.5,247.5)"/><circle cx="229.5" cy="247.5" r="4.5" transform="rotate(0,229.5,247.5)"/><circle cx="238.5" cy="247.5" r="4.5" transform="rotate(0,238.5,247.5)"/><circle cx="265.5" cy="247.5" r="4.5" transform="rotate(0,265.5,247.5)"/><circle cx="103.5" cy="256.5" r="4.5" transform="rotate(0,103.5,256.5)"/><circle cx="121.5" cy="256.5" r="4.5" transform="rotate(0,121.5,256.5)"/><circle cx="130.5" cy="256.5" r="4.5" transform="rotate(0,130.5,256.5)"/><circle cx="148.5" cy="256.5" r="4.5" transform="rotate(0,148.5,256.5)"/><circle cx="157.5" cy="256.5" r="4.5" transform="rotate(0,157.5,256.5)"/><circle cx="166.5" cy="256.5" r="4.5" transform="rotate(0,166.5,256.5)"/><circle cx="175.5" cy="256.5" r="4.5" transform="rotate(0,175.5,256.5)"/><circle cx="193.5" cy="256.5" r="4.5" transform="rotate(0,193.5,256.5)"/><circle cx="202.5" cy="256.5" r="4.5" transform="rotate(0,202.5,256.5)"/><circle cx="220.5" cy="256.5" r="4.5" transform="rotate(0,220.5,256.5)"/><circle cx="256.5" cy="256.5" r="4.5" transform="rotate(0,256.5,256.5)"/><circle cx="94.5" cy="265.5" r="4.5" transform="rotate(0,94.5,265.5)"/><circle cx="103.5" cy="265.5" r="4.5" transform="rotate(0,103.5,265.5)"/><circle cx="112.5" cy="265.5" r="4.5" transform="rotate(0,112.5,265.5)"/><circle cx="121.5" cy="265.5" r="4.5" transform="rotate(0,121.5,265.5)"/><circle cx="148.5" cy="265.5" r="4.5" transform="rotate(0,148.5,265.5)"/><circle cx="166.5" cy="265.5" r="4.5" transform="rotate(0,166.5,265.5)"/><circle cx="175.5" cy="265.5" r="4.5" transform="rotate(0,175.5,265.5)"/><circle cx="184.5" cy="265.5" r="4.5" transform="rotate(0,184.5,265.5)"/><circle cx="193.5" cy="265.5" r="4.5" transform="rotate(0,193.5,265.5)"/><circle cx="211.5" cy="265.5" r="4.5" transform="rotate(0,211.5,265.5)"/><circle cx="229.5" cy="265.5" r="4.5" transform="rotate(0,229.5,265.5)"/><circle cx="256.5" cy="265.5" r="4.5" transform="rotate(0,256.5,265.5)"/><circle cx="265.5" cy="265.5" r="4.5" transform="rotate(0,265.5,265.5)"/></clipPath><clipPath id="clip-path-corners-square-color-0-0-8"><path clip-rule="evenodd" d="M 9 9v 63h 63v -63zM 18 18h 45v 45h -45z" transform="rotate(0,40.5,40.5)"/></clipPath><clipPath id="clip-path-corners-dot-color-0-0-8"><circle cx="40.5" cy="40.5" r="13.5" transform="rotate(0,40.5,40.5)"/></clipPath><clipPath id="clip-path-corners-square-color-1-0-8"><path clip-rule="evenodd" d="M 207 9v 63h 63v -63zM 216 18h 45v 45h -45z" transform="rotate(90,238.5,40.5)"/></clipPath><clipPath id="clip-path-corners-dot-color-1-0-8"><circle cx="238.5" cy="40.5" r="13.5" transform="rotate(90,238.5,40.5)"/></clipPath><clipPath id="clip-path-corners-square-color-0-1-8"><path clip-rule="evenodd" d="M 9 207v 63h 63v -63zM 18 216h 45v 45h -45z" transform="rotate(-90,40.5,238.5)"/></clipPath><clipPath id="clip-path-corners-dot-color-0-1-8"><circle cx="40.5" cy="238.5" r="13.5" transform="rotate(-90,40.5,238.5)"/></clipPath></defs><rect x="0" y="0" height="280" width="280" clip-path="url('#clip-path-background-color-8')" fill="#292524"/><rect x="0" y="0" height="280" width="280" clip-path="url('#clip-path-dot-color-8')" fill="#FFFFFF"/><rect x="9" y="9" height="63" width="63" clip-path="url('#clip-path-corners-square-color-0-0-8')" fill="#FFFFFF"/><rect x="27" y="27" height="27" width="27" clip-path="url('#clip-path-corners-dot-color-0-0-8')" fill="#FFFFFF"/><rect x="207" y="9" height="63" width="63" clip-path="url('#clip-path-corners-square-color-1-0-8')" fill="#FFFFFF"/><rect x="225" y="27" height="27" width="27" clip-path="url('#clip-path-corners-dot-color-1-0-8')" fill="#FFFFFF"/><rect x="9" y="207" height="63" width="63" clip-path="url('#clip-path-corners-square-color-0-1-8')" fill="#FFFFFF"/><rect x="27" y="225" height="27" width="27" clip-path="url('#clip-path-corners-dot-color-0-1-8')" fill="#FFFFFF"/></svg>